<?xml version="1.0" encoding="UTF-8"?>
<svg width="123px" height="39px" viewBox="0 0 123 39" version="1.1" xmlns="http://www.w3.org/2000/svg" xmlns:xlink="http://www.w3.org/1999/xlink">
    <!-- Generator: Sketch 56 (81588) - https://sketch.com -->
    <title>mendix_logo_white</title>
    <desc>Created with Sketch.</desc>
    <g id="Page-1" stroke="none" stroke-width="1" fill="none" fill-rule="evenodd">
        <g id="mendix_logo_white" fill="#FFFFFF" fill-rule="nonzero">
            <path d="M33.09,2.84217094e-14 L5.09,2.84217094e-14 C2.28115285,0.00550216499 0.00550216499,2.28115285 2.84217094e-14,5.09 L2.84217094e-14,33.09 C0.00550216499,35.8988471 2.28115285,38.1744978 5.09,38.18 L33.09,38.18 C34.4399519,38.18 35.7346133,37.6437337 36.6891735,36.6891735 C37.6437337,35.7346133 38.18,34.4399519 38.18,33.09 L38.18,5.09 C38.1744978,2.28115285 35.8988471,0.00550216499 33.09,2.84217094e-14 L33.09,2.84217094e-14 Z M34.09,26 L30,26 L28.45,22.88 L26.94,26 L19.09,26 L19.09,16.08 C19.062833,15.2467712 18.3735944,14.5886596 17.54,14.6 C16.7081469,14.5887674 16.021817,15.2483572 16,16.08 L16,26 L11.92,26 L11.92,16.06 C11.8877494,15.2274772 11.203147,14.5693756 10.37,14.57 C9.96684842,14.5619645 9.57702464,14.7144502 9.28632589,14.9938961 C8.99562715,15.273342 8.82787845,15.6568453 8.82,16.06 L8.82,26 L4.72,26 L4.72,12.18 L8.82,12.18 L8.82,13.79 L8.89,13.79 C9.23594603,13.2377839 9.73674871,12.7995815 10.33,12.53 C10.9681477,12.2864994 11.6470846,12.1676855 12.33,12.18 C13.0051275,12.1671272 13.6725263,12.3253764 14.27,12.64 C14.818652,12.9227513 15.2814023,13.3475147 15.61,13.87 C16.0488173,13.3314425 16.6022606,12.8975703 17.23,12.6 C18.3678957,12.1234807 19.6343063,12.049401 20.82,12.39 C21.2450219,12.5250852 21.6440246,12.7313494 22,13 C22.3247528,13.2428485 22.5969008,13.549015 22.8,13.9 C23.0401249,14.3395748 23.1737081,14.8293799 23.19,15.33 L23.19,25.33 L26.37,19.08 L22.86,12.17 L26.96,12.17 L28.51,15.29 L30,12.18 L34.1,12.18 L30.59,19.09 L34.09,26 Z" id="Shape"></path>
            <path d="M52.6445313,23.6757812 L52.3544922,22.3046875 L52.2841797,22.3046875 C51.8037085,22.9082061 51.3247094,23.3168935 50.847168,23.5307617 C50.3696265,23.74463 49.7734411,23.8515625 49.0585938,23.8515625 C48.1035108,23.8515625 47.3549832,23.6054712 46.8129883,23.1132812 C46.2709934,22.6210913 46,21.920903 46,21.0126953 C46,19.0673731 47.5556485,18.047852 50.6669922,17.9541016 L52.3017578,17.9013672 L52.3017578,17.3037109 C52.3017578,16.5478478 52.1391618,15.9897479 51.8139648,15.6293945 C51.4887679,15.2690412 50.9687536,15.0888672 50.2539063,15.0888672 C49.4511679,15.0888672 48.5429738,15.3349585 47.5292969,15.8271484 L47.0810547,14.7109375 C47.5556664,14.4531237 48.0756808,14.2509773 48.6411133,14.1044922 C49.2065458,13.9580071 49.7734347,13.8847656 50.3417969,13.8847656 C51.4902401,13.8847656 52.3413058,14.1396459 52.8950195,14.6494141 C53.4487332,15.1591822 53.7255859,15.9765569 53.7255859,17.1015625 L53.7255859,23.6757812 L52.6445313,23.6757812 Z M49.3486328,22.6474609 C50.2568405,22.6474609 50.9702123,22.39844 51.4887695,21.9003906 C52.0073268,21.4023413 52.2666016,20.7050826 52.2666016,19.8085938 L52.2666016,18.9384766 L50.8076172,19 C49.6474551,19.0410158 48.8110377,19.2211898 48.2983398,19.5405273 C47.785642,19.8598649 47.5292969,20.3564419 47.5292969,21.0302734 C47.5292969,21.5576198 47.6889632,21.958983 48.0083008,22.234375 C48.3276383,22.509767 48.7744112,22.6474609 49.3486328,22.6474609 Z M60.8281531,23.8515625 C60.2011968,23.8515625 59.6284486,23.735841 59.1098913,23.5043945 C58.5913341,23.2729481 58.1562798,22.9169946 57.8047156,22.4365234 L57.6992468,22.4365234 C57.7695597,22.9990263 57.8047156,23.532224 57.8047156,24.0361328 L57.8047156,28 L56.3457312,28 L56.3457312,14.0429688 L57.5322546,14.0429688 L57.7344031,15.3613281 L57.8047156,15.3613281 C58.1797174,14.8339817 58.6162365,14.4531262 59.1142859,14.21875 C59.6123352,13.9843738 60.1836186,13.8671875 60.8281531,13.8671875 C62.1055032,13.8671875 63.0913332,14.3037066 63.7856726,15.1767578 C64.480012,16.0498091 64.8271765,17.2744062 64.8271765,18.8505859 C64.8271765,20.4326251 64.4741527,21.6616167 63.7680945,22.5375977 C63.0620363,23.4135786 62.0820656,23.8515625 60.8281531,23.8515625 Z M60.6172156,15.1064453 C59.6328356,15.1064453 58.9209287,15.3789035 58.4814734,15.9238281 C58.0420181,16.4687527 57.8164344,17.3359316 57.8047156,18.5253906 L57.8047156,18.8505859 C57.8047156,20.2041083 58.0302992,21.1723604 58.4814734,21.7553711 C58.9326475,22.3383818 59.6562731,22.6298828 60.6523718,22.6298828 C61.4844072,22.6298828 62.1362562,22.2929721 62.6079382,21.6191406 C63.0796203,20.9453091 63.3154578,20.0166075 63.3154578,18.8330078 C63.3154578,17.6318299 63.0796203,16.7104524 62.6079382,16.0688477 C62.1362562,15.4272429 61.4726886,15.1064453 60.6172156,15.1064453 Z M71.4727124,23.8515625 C70.8457561,23.8515625 70.2730079,23.735841 69.7544507,23.5043945 C69.2358934,23.2729481 68.8008391,22.9169946 68.4492749,22.4365234 L68.3438061,22.4365234 C68.414119,22.9990263 68.4492749,23.532224 68.4492749,24.0361328 L68.4492749,28 L66.9902905,28 L66.9902905,14.0429688 L68.1768139,14.0429688 L68.3789624,15.3613281 L68.4492749,15.3613281 C68.8242768,14.8339817 69.2607958,14.4531262 69.7588452,14.21875 C70.2568946,13.9843738 70.8281779,13.8671875 71.4727124,13.8671875 C72.7500625,13.8671875 73.7358925,14.3037066 74.4302319,15.1767578 C75.1245713,16.0498091 75.4717358,17.2744062 75.4717358,18.8505859 C75.4717358,20.4326251 75.118712,21.6616167 74.4126538,22.5375977 C73.7065956,23.4135786 72.7266249,23.8515625 71.4727124,23.8515625 Z M71.2617749,15.1064453 C70.277395,15.1064453 69.565488,15.3789035 69.1260327,15.9238281 C68.6865774,16.4687527 68.4609937,17.3359316 68.4492749,18.5253906 L68.4492749,18.8505859 C68.4492749,20.2041083 68.6748586,21.1723604 69.1260327,21.7553711 C69.5772068,22.3383818 70.3008324,22.6298828 71.2969311,22.6298828 C72.1289665,22.6298828 72.7808155,22.2929721 73.2524975,21.6191406 C73.7241796,20.9453091 73.9600171,20.0166075 73.9600171,18.8330078 C73.9600171,17.6318299 73.7241796,16.7104524 73.2524975,16.0688477 C72.7808155,15.4272429 72.1172479,15.1064453 71.2617749,15.1064453 Z M82.0293811,13.8671875 C82.4571176,13.8671875 82.8409028,13.9023434 83.1807483,13.9726562 L82.9785998,15.3261719 C82.5801603,15.2382808 82.2286013,15.1943359 81.9239123,15.1943359 C81.1446115,15.1943359 80.4781143,15.510739 79.9244006,16.1435547 C79.3706869,16.7763704 79.0938342,17.5644484 79.0938342,18.5078125 L79.0938342,23.6757812 L77.6348498,23.6757812 L77.6348498,14.0429688 L78.8389514,14.0429688 L79.0059436,15.8271484 L79.0762561,15.8271484 C79.4336797,15.2001922 79.8643395,14.7167986 80.3682483,14.3769531 C80.872157,14.0371077 81.4258624,13.8671875 82.0293811,13.8671875 Z M92.5508935,18.8505859 C92.5508935,20.4209063 92.1553896,21.6469682 91.3643701,22.5288086 C90.5733505,23.4106489 89.480588,23.8515625 88.0860498,23.8515625 C87.2247173,23.8515625 86.4600765,23.6494161 85.7921044,23.2451172 C85.1241323,22.8408183 84.6085125,22.260746 84.2452294,21.5048828 C83.8819464,20.7490197 83.7003076,19.8642629 83.7003076,18.8505859 C83.7003076,17.2802656 84.0928818,16.0571333 84.8780419,15.1811523 C85.6632021,14.3051714 86.753035,13.8671875 88.1475732,13.8671875 C89.4952362,13.8671875 90.5660262,14.3154252 91.3599755,15.2119141 C92.1539248,16.1084029 92.5508935,17.3212814 92.5508935,18.8505859 Z M85.2120263,18.8505859 C85.2120263,20.0810608 85.4581176,21.0185515 85.9503076,21.6630859 C86.4424975,22.3076204 87.1661231,22.6298828 88.121206,22.6298828 C89.0762889,22.6298828 89.8013793,22.3090852 90.296499,21.6674805 C90.7916186,21.0258757 91.0391748,20.0869202 91.0391748,18.8505859 C91.0391748,17.6259704 90.7916186,16.695804 90.296499,16.0600586 C89.8013793,15.4243132 89.0704296,15.1064453 88.1036279,15.1064453 C87.148545,15.1064453 86.4278491,15.4199187 85.9415185,16.046875 C85.4551879,16.6738313 85.2120263,17.6083922 85.2120263,18.8505859 Z M96.47182,23.6757812 L92.81557,14.0429688 L94.3800231,14.0429688 L96.4542419,19.7558594 C96.9229942,21.0918036 97.1983821,21.9589824 97.2804138,22.3574219 L97.3507263,22.3574219 C97.4151797,22.0468734 97.6187909,21.4038135 97.9615661,20.4282227 C98.3043412,19.4526318 99.0733765,17.3242352 100.268695,14.0429688 L101.833148,14.0429688 L98.1768981,23.6757812 L96.47182,23.6757812 Z M108.918137,23.6757812 L108.628098,22.3046875 L108.557786,22.3046875 C108.077314,22.9082061 107.598315,23.3168935 107.120774,23.5307617 C106.643232,23.74463 106.047047,23.8515625 105.3322,23.8515625 C104.377117,23.8515625 103.628589,23.6054712 103.086594,23.1132812 C102.544599,22.6210913 102.273606,21.920903 102.273606,21.0126953 C102.273606,19.0673731 103.829254,18.047852 106.940598,17.9541016 L108.575364,17.9013672 L108.575364,17.3037109 C108.575364,16.5478478 108.412768,15.9897479 108.087571,15.6293945 C107.762374,15.2690412 107.242359,15.0888672 106.527512,15.0888672 C105.724774,15.0888672 104.81658,15.3349585 103.802903,15.8271484 L103.354661,14.7109375 C103.829272,14.4531237 104.349287,14.2509773 104.914719,14.1044922 C105.480152,13.9580071 106.047041,13.8847656 106.615403,13.8847656 C107.763846,13.8847656 108.614912,14.1396459 109.168625,14.6494141 C109.722339,15.1591822 109.999192,15.9765569 109.999192,17.1015625 L109.999192,23.6757812 L108.918137,23.6757812 Z M105.622239,22.6474609 C106.530446,22.6474609 107.243818,22.39844 107.762375,21.9003906 C108.280933,21.4023413 108.540207,20.7050826 108.540207,19.8085938 L108.540207,18.9384766 L107.081223,19 C105.921061,19.0410158 105.084644,19.2211898 104.571946,19.5405273 C104.059248,19.8598649 103.802903,20.3564419 103.802903,21.0302734 C103.802903,21.5576198 103.962569,21.958983 104.281907,22.234375 C104.601244,22.509767 105.048017,22.6474609 105.622239,22.6474609 Z M114.078321,23.6757812 L112.619337,23.6757812 L112.619337,10 L114.078321,10 L114.078321,23.6757812 Z M123.000225,21.0478516 C123.000225,21.9443404 122.666243,22.6357398 121.998271,23.1220703 C121.330299,23.6084009 120.392809,23.8515625 119.185771,23.8515625 C117.908421,23.8515625 116.912337,23.6494161 116.19749,23.2451172 L116.19749,21.8916016 C116.660383,22.1259777 117.15696,22.3105462 117.687236,22.4453125 C118.217512,22.5800788 118.728738,22.6474609 119.220928,22.6474609 C119.98265,22.6474609 120.568582,22.5258801 120.97874,22.2827148 C121.388898,22.0395496 121.593975,21.6689478 121.593975,21.1708984 C121.593975,20.7958966 121.431378,20.475099 121.106182,20.2084961 C120.780985,19.9418932 120.146714,19.6269549 119.20335,19.2636719 C118.306861,18.9296858 117.66966,18.6381848 117.291728,18.3891602 C116.913797,18.1401355 116.63255,17.8574235 116.447978,17.5410156 C116.263407,17.2246078 116.171123,16.8466819 116.171123,16.4072266 C116.171123,15.6220664 116.490456,15.0024437 117.129131,14.5483398 C117.767806,14.094236 118.643774,13.8671875 119.75706,13.8671875 C120.794175,13.8671875 121.807837,14.0781229 122.798076,14.5 L122.279521,15.6865234 C121.31272,15.2880839 120.436752,15.0888672 119.651592,15.0888672 C118.960182,15.0888672 118.438703,15.1972645 118.087139,15.4140625 C117.735574,15.6308605 117.559795,15.9296856 117.559795,16.3105469 C117.559795,16.5683607 117.625712,16.788085 117.757549,16.9697266 C117.889385,17.1513681 118.101786,17.3242179 118.394756,17.4882812 C118.687726,17.6523446 119.25022,17.8896469 120.082256,18.2001953 C121.22484,18.616213 121.996805,19.0351541 122.398174,19.4570312 C122.799543,19.8789084 123.000225,20.4091765 123.000225,21.0478516 Z" id="approvals"></path>
        </g>
    </g>
</svg>